<svg width="39" height="42" viewBox="0 0 39 42" fill="none" xmlns="http://www.w3.org/2000/svg">
<path d="M15.4932 23.1224V21.8367C15.4932 21.4751 15.7745 21.1938 16.1361 21.1938H30.279C30.6406 21.1938 30.9218 21.4751 30.9218 21.8367V23.1224C30.9218 23.484 30.6406 23.7653 30.279 23.7653H16.1361C15.7745 23.7653 15.4932 23.484 15.4932 23.1224Z" fill="white"/>
<path d="M16.1361 26.3367H30.279C30.6406 26.3367 30.9218 26.618 30.9218 26.9796V28.2653C30.9218 28.6269 30.6406 28.9081 30.279 28.9081H16.1361C15.7745 28.9081 15.4932 28.6269 15.4932 28.2653V26.9796C15.4932 26.618 15.7745 26.3367 16.1361 26.3367Z" fill="white"/>
<path d="M16.1361 31.4796H30.279C30.6406 31.4796 30.9218 31.7608 30.9218 32.1224V33.4081C30.9218 33.7697 30.6406 34.051 30.279 34.051H16.1361C15.7745 34.051 15.4932 33.7697 15.4932 33.4081V32.1224C15.4932 31.7608 15.7745 31.4796 16.1361 31.4796Z" fill="white"/>
<path fill-rule="evenodd" clip-rule="evenodd" d="M7.77895 15.0648C3.68376 15.0648 0.363953 11.745 0.363953 7.64979C0.363953 3.5546 3.68376 0.234787 7.77895 0.234787C11.223 0.234787 14.1186 2.58276 14.9524 5.76528H27.7075C28.7723 5.76528 30.2589 6.38804 31.0022 7.13135L37.27 13.3992C38.0133 14.1425 38.6361 15.6291 38.6361 16.6938V39.8367C38.6361 40.9014 37.7723 41.7653 36.7075 41.7653H9.70753C8.64279 41.7653 7.77895 40.9014 7.77895 39.8367L7.77895 15.0648ZM10.3504 14.6068C12.9729 13.6371 14.8971 11.227 15.1626 8.33671H25.779V16.6938C25.779 17.7586 26.6428 18.6224 27.7075 18.6224H36.0647V39.1938H10.3504V14.6068ZM29.174 8.93938C29.0334 8.79876 28.6919 8.61796 28.3504 8.49742V16.051H35.904C35.7834 15.7095 35.6026 15.368 35.462 15.2273L29.174 8.93938ZM8.77895 8.64983H12.779V6.64983H8.77895V2.64983H6.77895V6.64983H2.77895V8.64983H6.77895V12.6498H8.77895V8.64983Z" fill="white"/>
</svg>
