<svg width="15" height="18" viewBox="0 0 15 18" fill="none" xmlns="http://www.w3.org/2000/svg">
<path fill-rule="evenodd" clip-rule="evenodd" d="M0.779804 8.93064C0.779804 7.94658 0.863001 7.32207 2.91807 5.80081C4.61946 4.54132 10.073 0.237366 10.073 0.237366V7.42203H14.2202V17.7626H2.07515C1.36272 17.7626 0.779602 17.1843 0.779602 16.4778L0.779804 8.9307V8.93064Z" fill="#3E9CDC"/>
<path fill-rule="evenodd" clip-rule="evenodd" d="M10.073 7.42194V11.5849L2.45209 16.7335L12.0873 13.6246V7.42194H10.073Z" fill="black" fill-opacity="0.2"/>
<path fill-rule="evenodd" clip-rule="evenodd" d="M6.59037 7.20678C7.03606 6.68017 7.68693 6.4943 8.04432 6.79166C8.4017 7.08909 8.33027 7.75712 7.88457 8.28374C7.43922 8.81029 6.78808 8.99596 6.43069 8.69853C6.0733 8.40117 6.14494 7.73327 6.59037 7.20672V7.20678Z" fill="#231F20"/>
</svg>
